
<svg xmlns="http://www.w3.org/2000/svg" width="151" height="53.82" viewBox="0 0 151 53.82"><path d="M13457.742-1187.875v-7.053h.6l.1.666h.035a1.712,1.712,0,0,1,.662-.577,2.019,2.019,0,0,1,.866-.178,1.8,1.8,0,0,1,1.494.662,2.911,2.911,0,0,1,.527,1.857,2.893,2.893,0,0,1-.536,1.863,1.8,1.8,0,0,1-1.485.664,2.108,2.108,0,0,1-.868-.175,1.637,1.637,0,0,1-.66-.539h-.053a6.587,6.587,0,0,1,.053.808v2Zm1.08-6.1a2.123,2.123,0,0,0-.343,1.315v.164a2.432,2.432,0,0,0,.343,1.468,1.3,1.3,0,0,0,1.1.442,1.14,1.14,0,0,0,.988-.511,2.415,2.415,0,0,0,.357-1.408,2.323,2.323,0,0,0-.357-1.4,1.175,1.175,0,0,0-1.006-.487A1.307,1.307,0,0,0,13458.822-1193.978Zm-12.023,6.028v-.591a2.563,2.563,0,0,0,.546.053,1.127,1.127,0,0,0,1.084-.853l.271-.692-1.963-4.9h.791l1.066,2.776a10.681,10.681,0,0,1,.435,1.373h.036q.057-.227.241-.775t1.206-3.374h.791l-2.092,5.543a2.775,2.775,0,0,1-.727,1.166,1.543,1.543,0,0,1-1.02.344A2.974,2.974,0,0,1,13446.8-1187.951Zm32.3-2.678a2.545,2.545,0,0,1-.624-1.826,2.826,2.826,0,0,1,.579-1.87,1.927,1.927,0,0,1,1.557-.693,1.835,1.835,0,0,1,1.448.6,2.3,2.3,0,0,1,.533,1.587v.467h-3.354a1.93,1.93,0,0,0,.433,1.3,1.5,1.5,0,0,0,1.158.445,3.922,3.922,0,0,0,1.554-.329v.657a3.908,3.908,0,0,1-.739.242,4.155,4.155,0,0,1-.842.073A2.237,2.237,0,0,1,13479.1-1190.629Zm.568-3.389a1.756,1.756,0,0,0-.41,1.057h2.544a1.617,1.617,0,0,0-.311-1.068,1.1,1.1,0,0,0-.889-.371A1.2,1.2,0,0,0,13479.664-1194.018Zm-16.3,3.673a1.362,1.362,0,0,1-.41-1.061q0-1.475,2.357-1.546l.827-.027v-.3a1.236,1.236,0,0,0-.247-.846,1.015,1.015,0,0,0-.789-.273,3.209,3.209,0,0,0-1.376.374l-.227-.564a3.469,3.469,0,0,1,.788-.307,3.436,3.436,0,0,1,.859-.111,1.854,1.854,0,0,1,1.291.387,1.613,1.613,0,0,1,.419,1.239v3.323h-.546l-.146-.693h-.035a2.052,2.052,0,0,1-.727.619,2.219,2.219,0,0,1-.9.162A1.624,1.624,0,0,1,13463.363-1190.345Zm2.019-2.078a2.676,2.676,0,0,0-1.268.273.824.824,0,0,0-.389.753.761.761,0,0,0,.242.609,1,1,0,0,0,.677.208,1.5,1.5,0,0,0,1.082-.377,1.4,1.4,0,0,0,.393-1.057v-.44Zm-35.562,1.794a2.545,2.545,0,0,1-.623-1.826,2.821,2.821,0,0,1,.579-1.87,1.926,1.926,0,0,1,1.557-.693,1.835,1.835,0,0,1,1.448.6,2.3,2.3,0,0,1,.533,1.587v.467h-3.354a1.936,1.936,0,0,0,.434,1.3,1.5,1.5,0,0,0,1.157.445,3.919,3.919,0,0,0,1.555-.329v.657a3.908,3.908,0,0,1-.739.242,4.155,4.155,0,0,1-.842.073A2.239,2.239,0,0,1,13429.82-1190.629Zm.568-3.389a1.756,1.756,0,0,0-.41,1.057h2.545a1.622,1.622,0,0,0-.311-1.068,1.1,1.1,0,0,0-.889-.371A1.206,1.206,0,0,0,13430.389-1194.018Zm-11.7,3.673a1.359,1.359,0,0,1-.411-1.061q0-1.475,2.358-1.546l.827-.027v-.3a1.236,1.236,0,0,0-.247-.846,1.017,1.017,0,0,0-.788-.273,3.206,3.206,0,0,0-1.377.374l-.228-.564a3.469,3.469,0,0,1,.788-.307,3.442,3.442,0,0,1,.859-.111,1.853,1.853,0,0,1,1.291.387,1.609,1.609,0,0,1,.42,1.239v3.323h-.547l-.146-.693h-.036a2.052,2.052,0,0,1-.727.619,2.211,2.211,0,0,1-.9.162A1.624,1.624,0,0,1,13418.69-1190.345Zm2.019-2.078a2.673,2.673,0,0,0-1.268.273.822.822,0,0,0-.389.753.758.758,0,0,0,.242.609,1,1,0,0,0,.677.208,1.5,1.5,0,0,0,1.081-.377,1.4,1.4,0,0,0,.394-1.057v-.44Zm52.131,2.372v-.546a.863.863,0,0,0,.222.026q.511,0,.813-1.079a17.812,17.812,0,0,0,.457-3.278h2.847v4.868h-.746v-4.238h-1.461a17.813,17.813,0,0,1-.333,2.51,3.507,3.507,0,0,1-.553,1.359,1.056,1.056,0,0,1-.864.431A1.127,1.127,0,0,1,13472.84-1190.052Zm-38.979,0v-.546a.874.874,0,0,0,.222.026q.511,0,.813-1.079a17.812,17.812,0,0,0,.457-3.278h2.847v4.868h-.746v-4.238h-1.461a17.813,17.813,0,0,1-.333,2.51,3.492,3.492,0,0,1-.553,1.359,1.056,1.056,0,0,1-.864.431A1.127,1.127,0,0,1,13433.86-1190.052Zm64.265-.009v-1.946h-1.23l-1.274,1.946h-.861l1.4-2.057a1.51,1.51,0,0,1-.863-.481,1.352,1.352,0,0,1-.3-.9,1.3,1.3,0,0,1,.449-1.049,1.874,1.874,0,0,1,1.252-.382h2.168v4.868Zm-2.412-3.429q0,.843,1.227.844h1.186v-1.643h-1.336Q13495.712-1194.289,13495.713-1193.489Zm-2.589,3.429v-2.976l.014-.586.022-.577-2.63,4.14h-.919v-4.868h.692v3.087l-.031.808-.013.253,2.633-4.149h.92v4.868Zm-5.813,0v-2.195h-2.728v2.195h-.737v-4.868h.737v2.039h2.728v-2.039h.737v4.868Zm-18.935,0v-4.868h2.136q1.813,0,1.813,1.222a.922.922,0,0,1-.272.722,1.5,1.5,0,0,1-.767.331v.04a1.588,1.588,0,0,1,.908.364,1.03,1.03,0,0,1,.286.773,1.227,1.227,0,0,1-.5,1.048,2.439,2.439,0,0,1-1.459.369Zm.737-.617h1.354q1.274,0,1.274-.849a.62.62,0,0,0-.3-.575,2.032,2.032,0,0,0-.993-.18h-1.337Zm0-2.239h1.248a1.983,1.983,0,0,0,.963-.169.593.593,0,0,0,.281-.551.528.528,0,0,0-.273-.5,1.791,1.791,0,0,0-.828-.149h-1.391Zm-13.68,2.856v-4.229h-2.6v4.229h-.737v-4.868h4.087v4.868Zm-15.671,0v-4.868h.737v2.012h1.5q1.865,0,1.865,1.372a1.318,1.318,0,0,1-.486,1.1,2.269,2.269,0,0,1-1.424.382Zm.737-.617h1.422a1.638,1.638,0,0,0,.9-.2.689.689,0,0,0,.311-.617.66.66,0,0,0-.286-.593,1.782,1.782,0,0,0-.944-.189h-1.4Zm-13.334.617v-2.195h-2.727v2.195h-.736v-4.868h.736v2.039h2.727v-2.039h.738v4.868Zm-10.832,0v-4.229h-2.6v4.229h-.738v-4.868h4.087v4.868Zm-21.564-1.962a121.743,121.743,0,0,0,12.663-18.014l-7.848-11.058h6.777l3.924,5.707a93.875,93.875,0,0,0,5.3-12.175,21.469,21.469,0,0,1-4.226-.132l12.128-12.307s.315,14.9.357,16.766a8.171,8.171,0,0,1-2.854-2.854,83.694,83.694,0,0,1-7.67,14.8l6.421,9.453h-6.777l-3.211-4.637a77.4,77.4,0,0,1-13.377,14.09,7.236,7.236,0,0,1-2.14,1.249C13394.014-1191.131,13394.291-1191.461,13394.77-1192.023Zm90.785-10.7,1.069-4.281a11.025,11.025,0,0,0,4.994,1.427c1.8,0,2.676-.625,2.676-1.605s-.621-1.4-2.854-2.14c-3.956-1.332-5.566-3.652-5.529-5.886,0-3.605,3.107-6.242,7.849-6.242a12.635,12.635,0,0,1,5.351,1.07l-1.07,4.1a9.181,9.181,0,0,0-4.1-1.07c-1.449,0-2.318.626-2.318,1.605,0,.9.822,1.375,3.174,2.2,3.642,1.254,5.17,3.184,5.209,6.006,0,3.568-2.72,6.242-8.2,6.242C13487.084-1201.3,13485.555-1202.724,13485.555-1202.724Zm-20.869-6.956V-1221.1h5.887v10.345c0,2.782,1.135,4.459,3.21,4.459a2.993,2.993,0,0,0,3.032-3.21V-1221.1h6.064v19.263c-3.537,0-4.849-.916-5.707-1.962-.658.739-1.927,2.5-5.708,2.5C13464.311-1201.3,13464.686-1209.68,13464.686-1209.68Zm-83.65,2.5c0-4.977,4.461-7.53,11.236-7.491,0-1.391-.45-2.676-3.389-2.676a11.023,11.023,0,0,0-5.35,1.427l-1.07-3.745a15.822,15.822,0,0,1,7.49-1.784c6.387,0,8.383,3.876,8.383,8.383v11.236c-3.711,0-4.629-.844-5.707-1.962a6.7,6.7,0,0,1-5.352,2.318A5.776,5.776,0,0,1,13381.035-1207.183Zm5.887-.535a2.165,2.165,0,0,0,2.318,2.14,3.079,3.079,0,0,0,3.21-3.21v-2.14C13389.429-1210.928,13386.922-1209.973,13386.922-1207.718Zm69.024,5.886v-10.345c0-2.784-.744-4.464-2.665-4.464-2.748,0-2.864,3.1-2.864,3.573v11.236h-6.242v-10.345c0-1.368-.335-4.459-2.676-4.459-2.75,0-2.854,3.1-2.854,3.567v11.236h-5.886v-19.085a8.8,8.8,0,0,1,5.886,0v1.784a6.733,6.733,0,0,1,5.173-2.318,5.543,5.543,0,0,1,5.351,3.21,7.327,7.327,0,0,1,6.063-3.21c3.686,0,6.6,2.661,6.6,8.383v11.236Zm-32.462,0v-19.085a8.369,8.369,0,0,1,5.887,0v19.085Zm-50.3,0v-10.345c0-2.784-.744-4.464-2.665-4.464-2.749,0-2.864,3.1-2.864,3.573v11.236h-6.242v-10.345c0-1.368-.336-4.459-2.676-4.459-2.75,0-2.854,3.1-2.854,3.567v11.236H13350v-19.085a8.8,8.8,0,0,1,5.886,0v1.784a6.733,6.733,0,0,1,5.172-2.318,5.544,5.544,0,0,1,5.352,3.21,7.331,7.331,0,0,1,6.064-3.21c3.685,0,6.6,2.661,6.6,8.383v11.236Z" transform="translate(-13349.501 1241.196)" fill="#f11" stroke="rgba(0,0,0,0)" stroke-width="1"/></svg>